<svg height="360" viewBox="0 0 360 360" width="360" xmlns="http://www.w3.org/2000/svg"><path d="m180 0c99.4128 0 180 80.592 180 180s-80.5872 180-180 180c-99.4104 0-180-80.592-180-180s80.5896-180 180-180zm-.408 26.4c-84.6 0-153.192 68.592-153.192 153.192 0 48.6 22.6344 91.944 57.9864 119.976 1.644 1.296 3.2904 2.568 4.9776 3.792 1.6848 1.272 3.4056 2.448 5.172 3.6 1.7208 1.2 3.4848 2.304 5.28 3.408.12.072.2328.168.3432.24 1.5336.912 3.0672 1.8 4.6776 2.664 4.9392 2.808 10.0752 5.328 15.3552 7.512.64368.3024 1.288224.57024 1.931558.82944l1.284442.51456c1.728.696 3.5232 1.368 5.3256 1.992 1.05552.3744 2.112768.72288 3.179002 1.066176l2.146598.685824c.21.084.429.156.6534.225l.6858.207 2.0334.585c.6846.195 1.3746.387 2.0658.567.34128.1152.698976.21312 1.071014.309312l.762586.194688c1.8024.456 3.6792.912 5.52 1.296 1.6824.384 3.3648.72 5.052.984.1896.096.3864.12.5736.12.384.084.7668.15 1.1496.21l1.1496.174c1.1472.24 2.2632.384 3.408.528 2.1456.312 4.3296.576 6.5136.768.42.048.8412.09 1.2573.129l1.2267.111c.2328.024.4272.024.612.024 1.692.168 3.3744.24 5.0952.312 2.2224.12 4.4424.168 6.7032.168 2.2584 0 4.4808-.048 6.7008-.168 1.728-.072 3.4128-.144 5.0952-.312.1458 0 .28755 0 .446513-.010125l.165487-.013875c.8088-.072 1.6464-.144 2.4912-.24 2.1864-.192 4.368-.456 6.5088-.768 1.152-.144 2.2584-.288 3.4104-.528l1.1484-.174c.3834-.06.7668-.126 1.1484-.21.1944 0 .3816-.024.576-.12 1.6824-.264 3.372-.6 5.0568-.984 1.47264-.3072 2.965248-.66048 4.424986-1.022976l1.087814-.273024c.6504-.168 1.2624-.312 1.8384-.504.6888-.18 1.3782-.372 2.0634-.567l2.0382-.585.6819-.207c.2253-.069.4461-.141.6549-.225l2.6973-.858c.8949-.288 1.7847-.582 2.6667-.894 1.43616-.5184 2.852352-1.0368 4.242432-1.579776l2.327693-.926784c.643795-.2592 1.286035-.52704 1.928275-.82944 5.2872-2.184 10.4184-4.704 15.3576-7.512 1.6104-.864 3.1392-1.752 4.6728-2.664l.3432-.24c1.8048-1.104 3.5616-2.208 5.2896-3.408 1.7568-1.152 3.4848-2.328 5.1696-3.6 1.6824-1.224 3.3264-2.496 4.98-3.792 35.3424-28.032 57.9792-71.376 57.9792-119.976 0-84.6-68.592-153.192-153.192-153.192zm0 11.472c78.2424 0 141.7008 63.48 141.7008 141.72 0 54.576-30.8664 101.952-76.0944 125.616-8.04-1.776-15.5496-6.096-21.2568-12.864-1.4136-1.704-2.6424-3.456-3.7104-5.304 43.428-16.392 74.2536-58.32 74.2536-107.448 0-63.456-51.432-114.912-114.8928-114.912s-114.8952 51.456-114.8952 114.912c0 49.128 30.8328 91.056 74.2632 107.448-1.0704 1.848-2.2968 3.6-3.7176 5.304-5.7072 6.768-13.2096 11.088-21.2496 12.864-45.2328-23.664-76.104-71.04-76.104-125.616 0-78.24 63.4608-141.72 141.7032-141.72zm0 38.304c57.1008 0 103.404 46.296 103.404 103.416 0 44.256-27.84 82.056-66.984 96.768-3.0216-12.792.6504-26.616 10.4952-36.216.6864-.744 1.4208-1.392 2.184-2.04.7248-.624 1.4568-1.2 2.22-1.68l.1248-.119111c.020267-.016889.0424-.032889.0696-.048889 15.3936-13.968 25.0824-34.2 25.0824-56.664 0-42.336-34.2744-76.608-76.596-76.608-42.3144 0-76.596 34.272-76.596 76.608 0 22.464 9.6936 42.696 25.0872 56.664l.065244.048889.126756.119111c.638.4 1.247667.866667 1.854 1.372222l.3636.307778c.7704.648 1.5336 1.296 2.22 2.04 9.8064 9.6 13.488 23.472 10.4952 36.216-39.1752-14.712-67.02-52.464-67.02-96.768 0-57.12 46.3008-103.416 103.404-103.416z" fill="#bf0d3e" fill-rule="evenodd"/></svg>