<svg xmlns="http://www.w3.org/2000/svg" width="600" height="133"><style>@media (prefers-color-scheme:dark){.a{fill:#fff}}</style><path fill="#B02841" d="M103.533 2.126a7.26 7.26 0 0 1 10.18-.084l.086.084 22 22 .325.33c10.503 10.85 10.501 28.094-.004 38.942l-.321.327-2.535 2.534 2.535 2.535c10.825 10.825 10.934 28.31.325 39.269l-.325.33-22 22a7.26 7.26 0 0 1-10.38-10.151l.114-.116 22-22c5.212-5.212 5.264-13.63.156-18.907l-.157-.159-2.534-2.534L91.8 107.724l-.33.325c-10.85 10.503-28.095 10.502-38.943-.003l-.327-.322-31.198-31.198-2.534 2.534c-5.213 5.212-5.265 13.63-.157 18.907l.157.16 22 21.999a7.26 7.26 0 0 1-10.151 10.38l-.116-.114-22-22c-10.825-10.825-10.934-28.31-.325-39.268l.325-.33 2.534-2.535-2.534-2.534-.325-.33c-10.503-10.85-10.501-28.094.004-38.942l.321-.327 22-22 .116-.113A7.26 7.26 0 0 1 40.55 12.307l-.084.086-22 22-.156.158c-5.057 5.224-5.056 13.527.002 18.75l.155.158 2.534 2.534L52.2 24.794C63.026 13.97 80.51 13.86 91.47 24.47l.33.324 31.198 31.199 2.534-2.534.157-.16c5.057-5.223 5.056-13.526-.002-18.75l-.155-.157-22-22-.113-.115a7.26 7.26 0 0 1 .114-10.15M62.626 34.904l-.16.157-26.543 26.543a6.583 6.583 0 0 0-.076 9.232l.076.078 26.544 26.544.159.156c5.223 5.057 13.527 5.057 18.75-.001l.157-.155 26.544-26.544a6.583 6.583 0 0 0 0-9.31L81.533 35.061c-5.212-5.213-13.63-5.265-18.907-.157"/><path class="a" fill="#010408" d="M215.598 119.452V87.448c3.235 6.239 8.665 10.398 18.949 10.398 16.522 0 29.693-13.98 29.693-31.311s-13.171-31.543-29.693-31.543c-10.515 0-15.945 4.391-19.18 10.977v-9.706H200v83.19zm16.407-35.702c-10.283 0-16.87-7.856-16.87-17.215s6.587-17.447 16.87-17.447c9.936 0 16.637 7.973 16.637 17.331 0 9.128-6.7 17.331-16.637 17.331m53.766 12.594V65.611c0-10.052 6.932-16.06 15.944-16.06h2.195V34.877c-10.398-.578-16.522 4.16-18.602 12.825V36.263h-15.135v60.081zm34.462 24.148c14.096 0 21.606-8.203 26.69-20.335l26.574-63.894h-18.486l-11.67 34.316c-1.04 2.888-1.964 6.47-2.541 9.59-.578-3.12-1.502-6.702-2.542-9.59l-11.67-34.316h-18.833l23.801 57.308-.808 2.542c-1.734 5.315-5.546 9.128-11.554 9.128-2.542 0-4.738-.231-7.048-.809l-2.311 14.905c3.12.924 7.279 1.155 10.398 1.155m72.75-24.148V63.415c0-10.398 5.893-14.904 12.48-14.904 7.74 0 12.94 4.506 12.94 14.904v32.93H434V59.602c0-15.136-9.937-24.726-22.877-24.726-9.013 0-14.905 3.235-18.14 9.705V12h-15.598v84.344zm69.982 1.387c9.36 0 14.79-3.466 17.678-10.399v9.012h15.136v-60.08H480.18v32.928c0 10.399-5.893 14.905-12.479 14.905-7.74 0-12.016-4.506-12.016-14.905V36.263h-15.598v36.742c0 15.136 9.937 24.726 22.877 24.726m56.655-1.387V63.415c0-10.398 5.892-14.904 12.478-14.904 7.741 0 12.94 4.506 12.94 14.904v32.93h15.599V59.602c0-15.136-9.937-24.726-22.877-24.726-9.244 0-15.252 3.466-18.371 10.167v-8.78h-15.367v60.08zm78.994 0V82.48h-6.47c-3.005 0-4.853-1.733-4.853-5.545V49.55H600V36.263h-12.71V22.514l-15.597 1.618v12.131h-8.435v13.288h8.435v28.191c0 13.056 6.47 18.602 18.37 18.602z"/></svg>